<?xml version="1.0" encoding="utf-8"?>
<!-- Copyright 2020 ParadoxLabs, Inc; use only with permission -->
<svg version="1.1" id="Layer_1" xmlns="http://www.w3.org/2000/svg" xmlns:xlink="http://www.w3.org/1999/xlink" x="0px" y="0px"
	 viewBox="0 0 2000 585.88" style="enable-background:new 0 0 2000 585.88;" xml:space="preserve">
<style type="text/css">
	.st0{fill:#F9A21B;}
	.st1{fill:#133444;}
	.st2{fill:#EDECED;}
	.st3{fill:#F05C3B;}
	.st4{fill:#F9A11D;}
	.st5{opacity:0.2;fill:url(#SVGID_1_);}
	.st6{opacity:0.2;fill:url(#SVGID_2_);}
	.st7{opacity:0.2;fill:url(#SVGID_3_);}
</style>
<g>
	<g>
		<g>
			<path class="st0" d="M981.64,361.27h30.26v171.5c0,6.73,3.36,10.09,11.21,10.09h10.09v28.02h-13.45
				c-21.3,0-38.11-8.97-38.11-35.87V361.27z"/>
			<path class="st0" d="M1139.69,508.11h-35.87c-17.93,0-25.78,6.73-25.78,17.93c0,10.09,7.85,19.06,28.02,19.06
				c24.66,0,33.63-2.24,33.63-25.78V508.11z M1139.69,557.43L1139.69,557.43c-6.73,10.09-16.81,14.57-36.99,14.57
				c-33.63,0-52.68-20.18-52.68-45.96c0-23.54,16.81-43.72,48.2-43.72h41.47v-14.57c0-14.57-8.97-19.06-30.26-19.06
				c-15.69,0-22.42,3.36-28.02,11.21l-23.54-17.93c11.21-15.69,28.02-21.3,50.44-21.3c36.99,0,61.65,12.33,61.65,49.32v102h-30.26
				V557.43z"/>
			<path class="st0" d="M1231.61,495.78c0,21.3,1.12,45.96,29.14,45.96s30.26-23.54,30.26-45.96s-1.12-45.96-30.26-45.96
				C1232.73,449.82,1231.61,474.48,1231.61,495.78 M1201.34,361.27h30.26v76.22c11.21-10.09,23.54-17.93,38.11-17.93
				c17.93,0,31.39,7.85,40.35,19.06c7.85,10.09,10.09,20.18,10.09,57.17s-2.24,45.96-10.09,57.17
				c-8.97,11.21-21.3,19.06-40.35,19.06c-15.69,0-29.14-6.73-38.11-16.81v15.69h-30.26V361.27z"/>
			<path class="st0" d="M1358.27,524.92c13.45,12.33,26.9,19.06,47.08,19.06c16.81,0,29.14-6.73,29.14-19.06
				c0-10.09-7.85-13.45-17.93-14.57l-26.9-2.24c-24.66-2.24-42.6-16.81-42.6-42.6c0-30.26,24.66-45.96,56.05-45.96
				c25.78,0,43.72,7.85,58.29,20.18l-19.06,21.3c-11.21-7.85-23.54-13.45-40.35-13.45c-19.06,0-25.78,7.85-25.78,17.93
				c0,6.73,4.48,13.45,20.18,14.57l24.66,2.24c31.39,2.24,43.72,21.3,43.72,44.84c0,29.14-26.9,45.96-61.65,45.96
				c-24.66,0-45.96-8.97-66.13-26.9L1358.27,524.92z"/>
		</g>
		<g>
			<path class="st1" d="M140.95,211.07c0-34.75-2.24-70.62-44.84-70.62s-44.84,36.99-44.84,70.62c0,32.51,2.24,69.5,44.84,69.5
				C138.71,281.68,140.95,245.82,140.95,211.07 M5.32,97.85h45.96v23.54c14.57-15.69,34.75-25.78,58.29-25.78
				c28.02,0,48.2,12.33,60.53,29.14c12.33,15.69,15.69,30.26,15.69,86.31c0,54.93-3.36,69.5-15.69,86.31
				c-13.45,16.81-32.51,29.14-60.53,29.14c-23.54,0-41.47-11.21-58.29-26.9v115.45H5.32V97.85z"/>
			<path class="st1" d="M356.17,229h-54.93c-26.9,0-39.23,11.21-39.23,26.9s12.33,28.02,42.6,28.02c38.11,0,50.44-4.48,50.44-39.23
				V229H356.17z M356.17,304.1L356.17,304.1c-10.09,15.69-25.78,22.42-57.17,22.42c-50.44,0-79.59-30.26-79.59-69.5
				c0-35.87,24.66-67.26,73.98-67.26h62.77v-23.54c0-21.3-13.45-29.14-45.96-29.14c-23.54,0-34.75,4.48-42.6,17.93l-35.87-26.9
				c16.81-23.54,41.47-32.51,75.1-32.51c56.05,0,94.16,19.06,94.16,73.98v154.69h-45.96L356.17,304.1L356.17,304.1z"/>
			<path class="st1" d="M450.33,97.85h45.96v23.54h1.12c14.57-17.93,34.75-26.9,59.41-26.9c17.93,0,33.63,6.73,47.08,17.93
				l-32.51,39.23c-11.21-7.85-17.93-11.21-30.26-11.21c-22.42,0-43.72,14.57-43.72,47.08v135.63h-45.96L450.33,97.85L450.33,97.85z"
				/>
			<path class="st1" d="M745.13,229H690.2c-26.9,0-39.23,11.21-39.23,26.9s12.33,28.02,42.6,28.02c38.11,0,50.44-4.48,50.44-39.23
				L745.13,229L745.13,229z M745.13,304.1L745.13,304.1c-10.09,15.69-25.78,22.42-57.17,22.42c-50.44,0-79.59-30.26-79.59-69.5
				c0-35.87,24.66-67.26,73.98-67.26h62.77v-23.54c0-21.3-13.45-29.14-45.96-29.14c-23.54,0-34.75,4.48-42.6,17.93l-35.87-26.9
				c17.93-23.54,42.6-32.51,76.22-32.51c56.05,0,94.16,19.06,94.16,73.98v154.69h-45.96V304.1z"/>
			<path class="st1" d="M889.73,211.07c0,34.75,2.24,70.62,44.84,70.62s44.84-36.99,44.84-70.62c0-32.51-2.24-70.62-44.84-70.62
				C891.97,141.57,889.73,176.32,889.73,211.07 M979.4,300.74c-14.57,15.69-34.75,26.9-58.29,26.9c-28.02,0-48.2-12.33-60.53-29.14
				c-12.33-15.69-15.69-30.26-15.69-86.31c0-54.93,3.36-70.62,15.69-86.31c13.45-16.81,32.51-29.14,60.53-29.14
				c23.54,0,41.47,11.21,58.29,26.9V7.06h44.84v317.22H979.4V300.74z"/>
			<path class="st1" d="M1194.62,157.26c-6.73-8.97-21.3-16.81-36.99-16.81c-15.69,0-30.26,6.73-36.99,16.81
				c-8.97,12.33-11.21,21.3-11.21,53.8s2.24,41.47,11.21,53.8c6.73,8.97,21.3,16.81,36.99,16.81c15.69,0,30.26-6.73,36.99-16.81
				c8.97-12.33,11.21-21.3,11.21-53.8S1202.46,169.59,1194.62,157.26 M1089.25,124.76c12.33-13.45,33.63-29.14,68.38-29.14
				c34.75,0,56.05,15.69,68.38,29.14c17.93,19.06,24.66,38.11,24.66,86.31c0,49.32-6.73,68.38-24.66,87.43
				c-12.33,13.45-33.63,29.14-68.38,29.14c-34.75,0-56.05-15.69-68.38-29.14c-17.93-19.06-24.66-38.11-24.66-87.43
				C1064.59,162.87,1071.32,143.81,1089.25,124.76"/>
			<polygon class="st1" points="1276.45,97.85 1331.37,97.85 1376.21,171.83 1421.04,97.85 1475.97,97.85 1401.99,208.82
				1479.33,324.28 1424.41,324.28 1376.21,249.18 1328.01,324.28 1274.2,324.28 1350.43,208.82 			"/>
		</g>
	</g>
	<polygon class="st2" points="1712.98,354.97 1712.98,444.79 1994.09,282.49 1635.2,75.29 1556.97,120.45 1838.08,282.75 	"/>
	<polygon class="st3" points="1712.98,300.31 1635.2,255.4 1635.2,580 1994.09,372.79 1994.09,282.46 1712.98,444.76 	"/>
	<polygon class="st4" points="1760.25,327.63 1838.04,282.72 1556.93,120.42 1556.93,534.84 1635.16,580 1635.16,255.4 	"/>

		<linearGradient id="SVGID_1_" gradientUnits="userSpaceOnUse" x1="681.1163" y1="957.8934" x2="738.586" y2="957.8934" gradientTransform="matrix(-0.5 -0.866 0.866 -0.5 1174.9486 1374.0897)">
		<stop  offset="0" style="stop-color:#FFFFFF;stop-opacity:0"/>
		<stop  offset="1" style="stop-color:#000000"/>
	</linearGradient>
	<polygon class="st5" points="1635.2,321.88 1635.22,255.51 1692.71,288.68 	"/>

		<linearGradient id="SVGID_2_" gradientUnits="userSpaceOnUse" x1="780.6584" y1="-416.7134" x2="838.1282" y2="-416.7134" gradientTransform="matrix(-0.5 0.866 -0.866 -0.5 1771.7216 -489.428)">
		<stop  offset="0" style="stop-color:#FFFFFF;stop-opacity:0"/>
		<stop  offset="1" style="stop-color:#000000"/>
	</linearGradient>
	<polygon class="st6" points="1771.03,411.6 1713.54,444.77 1713.52,378.4 	"/>

		<linearGradient id="SVGID_3_" gradientUnits="userSpaceOnUse" x1="1914.0209" y1="197.7285" x2="1971.4906" y2="197.7285" gradientTransform="matrix(1 0 0 1 -133.5125 85.1734)">
		<stop  offset="0" style="stop-color:#FFFFFF;stop-opacity:0"/>
		<stop  offset="1" style="stop-color:#000000"/>
	</linearGradient>
	<polygon class="st7" points="1780.51,249.7 1837.98,282.9 1780.51,316.11 	"/>
</g>
</svg>
